<?xml version="1.0" encoding="iso-8859-1"?>
<!-- Generator: Adobe Illustrator 18.0.0, SVG Export Plug-In . SVG Version: 6.00 Build 0)  -->
<!DOCTYPE svg PUBLIC "-//W3C//DTD SVG 1.1//EN" "http://www.w3.org/Graphics/SVG/1.1/DTD/svg11.dtd">
<svg version="1.1" id="Capa_1" xmlns="http://www.w3.org/2000/svg" xmlns:xlink="http://www.w3.org/1999/xlink" x="0px" y="0px"
	 viewBox="0 0 481.95 481.95" style="enable-background:new 0 0 481.95 481.95;" xml:space="preserve">
	 <style type="text/css">
		.st0{fill:#333333;}
	 </style>
<g>
	<path class="st0" d="M416.974,299.874c-0.634-31.682-10.734-56.83-18.11-75.193c-4.407-10.974-7.889-19.642-7.889-25.727
		c0-1.952-1.409-3.619-3.334-3.944c-1.916-0.326-3.803,0.785-4.444,2.63c-7.48,21.507-15.621,37.902-39.355,67.829
		c-12.378,15.607-17.583,35.04-14.279,53.316c1.942,10.745,6.646,19.779,13.179,25.606c-3.507,2.795-7.143,5.462-10.921,7.982
		c-13.271,8.854-29.237,10.221-43.809,3.749c-13.13-5.831-22.578-17.093-25.988-30.634c0.615-0.083,1.23-0.184,1.843-0.32
		c0.086-0.014,0.172-0.031,0.257-0.051c7.13-1.663,12.884-6.765,15.546-13.366c2.633,1.059,5.417,1.6,8.211,1.6
		c4.048,0,8.108-1.118,11.731-3.37c1.445-0.898,2.788-1.965,3.991-3.169c5.263-5.263,7.299-12.671,6.077-19.596
		c1.297,0.228,2.609,0.35,3.923,0.35c5.7,0,11.394-2.147,15.668-6.422c1.201-1.2,2.268-2.543,3.173-3.995
		c3.807-6.124,4.356-13.498,1.766-19.939c6.603-2.661,11.706-8.416,13.368-15.547c0.019-0.078,0.034-0.155,0.047-0.233
		c1.457-6.56-0.099-13.325-4.285-18.599c-1.359-1.712-2.938-3.187-4.676-4.404c1.049-0.736,2.052-1.553,2.977-2.477
		c2.941-2.943,4.933-6.55,5.881-10.425c30.653-23.872,32.909-50.597,32.991-51.746c0.131-1.845-1.021-3.539-2.783-4.097
		c-0.854-0.271-20.634-6.286-48.063,5.416c-5.252-5.031-12.457-6.972-19.219-5.777c0.551-3.118,0.416-6.327-0.359-9.402
		c12.135-0.961,24.302-2.169,36.387-3.634v1.072c0,2.209,1.791,4,4,4s4-1.791,4-4v-2.079c3.362-0.439,6.718-0.89,10.06-1.367
		c1.972-0.281,3.436-1.969,3.436-3.96v-27c0-1.991-1.465-3.68-3.437-3.96c-3.346-0.476-6.7-0.93-10.059-1.367V96
		c0-2.209-1.791-4-4-4s-4,1.791-4,4v0.629c-22.476-2.717-45.157-4.584-67.74-5.557c9.646-9.663,15.619-22.993,15.619-37.693
		C294.354,23.945,270.409,0,240.975,0s-53.38,23.945-53.38,53.379c0,14.7,5.973,28.029,15.619,37.692
		c-22.583,0.973-45.264,2.84-67.739,5.557V96c0-2.209-1.791-4-4-4s-4,1.791-4,4v1.622c-3.362,0.438-6.719,0.892-10.068,1.369
		c-1.972,0.28-3.437,1.969-3.437,3.96v27c0,1.991,1.464,3.679,3.436,3.96c3.342,0.477,6.702,0.928,10.069,1.368v2.078
		c0,2.209,1.791,4,4,4s4-1.791,4-4v-1.071c12.448,1.508,25.018,2.747,37.587,3.73c-0.928,3.271-1.113,6.722-0.525,10.064
		c-6.677-1.176-13.788,0.703-19.012,5.568c-28.069-12.419-48.438-6.24-49.304-5.966c-1.763,0.558-2.914,2.252-2.783,4.097
		c0.082,1.152,2.349,27.993,33.198,51.905c0.732,3.161,2.165,6.162,4.252,8.792c1.36,1.713,2.938,3.188,4.676,4.406
		c-1.049,0.737-2.051,1.553-2.976,2.478c-5.465,5.464-7.686,13.216-5.938,20.737c1.635,7.021,6.456,12.624,12.85,15.353
		c-2.782,6.547-2.321,14.223,1.543,20.444c0.899,1.443,1.965,2.785,3.168,3.99c4.293,4.292,9.976,6.443,15.664,6.443
		c1.31,0,2.619-0.124,3.913-0.352c-1.222,6.912,0.814,14.3,6.097,19.582c1.202,1.202,2.545,2.27,3.995,3.172
		c3.585,2.228,7.654,3.328,11.713,3.328c2.982-0.001,5.958-0.599,8.731-1.777c2.731,6.389,8.332,11.205,15.351,12.841
		c0.747,0.174,1.497,0.301,2.247,0.397c-3.415,13.526-12.854,24.773-25.971,30.603c-14.573,6.475-30.545,5.111-43.819-3.746
		c-3.778-2.519-7.414-5.186-10.92-7.981c6.534-5.828,11.237-14.862,13.179-25.607c3.303-18.276-1.901-37.709-14.279-53.315
		c-23.734-29.927-31.875-46.322-39.355-67.829c-0.643-1.845-2.53-2.956-4.444-2.63c-1.925,0.325-3.334,1.992-3.334,3.944
		c0,6.085-3.481,14.753-7.889,25.727c-7.376,18.363-17.477,43.512-18.11,75.193c-1.02,51.024,46.856,54.818,51.547,55.063
		c3.356,5.642,7.048,11.111,11.093,16.379c14.07,18.322,31.468,33.25,51.707,44.369l13.211,7.261
		c21.641,11.887,37.891,32.33,44.586,56.089c0.485,1.724,2.058,2.915,3.849,2.915c0.001,0,0.001,0,0.001,0
		c1.791,0,3.363-1.19,3.85-2.914c6.705-23.762,22.959-44.205,44.597-56.09l13.208-7.261c20.216-11.1,37.612-26.027,51.708-44.369
		c4.045-5.267,7.736-10.736,11.091-16.379C370.094,354.694,417.995,350.91,416.974,299.874z M354.475,105.707
		c1.832,0.241,3.667,0.47,5.495,0.722v20.044c-1.828,0.253-3.661,0.496-5.495,0.737V105.707z M127.475,127.211
		c-1.838-0.242-3.675-0.485-5.505-0.739v-20.044c1.831-0.253,3.67-0.482,5.505-0.723V127.211z M284.764,363.433
		c16.875,7.495,36.126,5.849,51.495-4.404c5.711-3.809,11.12-7.933,16.238-12.338c-1.391,1.706-2.824,3.389-4.311,5.044
		c-13.401,14.889-29.95,27.013-49.187,36.034l-13.21,6.2c-17.413,8.17-31.622,20.725-40.82,35.681V320.609
		c0.108,0.089,0.211,0.182,0.32,0.269c2.526,2.005,5.396,3.402,8.42,4.158C257.161,342.027,268.589,356.25,284.764,363.433z
		 M209.414,250.353c-17.479-17.48-17.479-45.923,0-63.403c8.74-8.74,20.221-13.109,31.702-13.109
		c11.48,0,22.961,4.369,31.701,13.109c17.479,17.48,17.479,45.923,0,63.403C255.337,267.83,226.895,267.832,209.414,250.353z
		 M298.653,155.445l-23.132,23.133c-6.417-5.517-13.848-9.25-21.643-11.178l23.499-30.626c0.736-0.964,1.601-1.83,2.575-2.581
		c4.662-3.609,11.16-3.939,16.171-0.821c0.945,0.589,1.811,1.273,2.572,2.034c5.418,5.419,5.489,14.312,0.164,19.842
		C298.793,155.31,298.73,155.369,298.653,155.445z M271.026,131.909l-25.696,33.49v-31.591c0-3.793,1.472-7.353,4.145-10.025
		c3.499-3.499,8.463-4.919,13.267-3.805c4.99,1.163,8.869,4.838,10.339,9.617C272.342,130.32,271.652,131.09,271.026,131.909z
		 M237.33,165.737l-25.39-33.083c-0.752-0.977-1.58-1.872-2.46-2.695c1.37-4.844,5.27-8.697,10.24-9.933
		c0.068-0.012,0.137-0.025,0.205-0.042c4.237-0.988,8.625,0,12.036,2.708c3.412,2.709,5.369,6.761,5.369,11.116V165.737z
		 M202.744,134.739c1.061,0.769,2.021,1.709,2.854,2.79l22.896,29.833c-7.846,1.917-15.327,5.665-21.783,11.215l-22.422-22.423
		c-0.101-0.101-0.207-0.198-0.313-0.295c-5.179-5.534-5.052-14.353,0.305-19.71c0.773-0.772,1.635-1.457,2.56-2.032
		C191.795,131.035,198.029,131.275,202.744,134.739z M262.507,317.278c-0.068,0.012-0.137,0.025-0.205,0.042
		c-4.237,0.989-8.626,0-12.037-2.708c-3.412-2.709-5.369-6.761-5.369-11.116v-31.929l25.392,33.087
		c0.752,0.976,1.581,1.871,2.46,2.692C271.378,312.189,267.477,316.042,262.507,317.278z M297.947,301.155
		c-0.773,0.772-1.635,1.457-2.56,2.032c-4.958,3.081-11.191,2.841-15.904-0.622c-1.061-0.769-2.022-1.709-2.854-2.789
		l-22.896-29.836c7.847-1.916,15.328-5.664,21.785-11.213l22.387,22.387c0.112,0.112,0.225,0.222,0.341,0.332
		C303.429,286.973,303.299,295.802,297.947,301.155z M325.652,272.922c-0.58,0.931-1.265,1.792-2.036,2.563
		c-5.359,5.359-14.205,5.481-19.693,0.322c-0.114-0.124-0.228-0.247-0.347-0.364l-22.386-22.387
		c5.55-6.455,9.297-13.936,11.215-21.782l29.828,22.89c1.085,0.836,2.025,1.798,2.809,2.877
		C328.49,261.736,328.729,267.972,325.652,272.922z M337.074,227.805c2.708,3.411,3.694,7.798,2.708,12.037
		c-0.015,0.063-0.027,0.124-0.039,0.187c-1.231,4.98-5.088,8.888-9.938,10.258c-0.824-0.882-1.719-1.711-2.697-2.464l-33.081-25.387
		h31.931C330.313,222.436,334.365,224.393,337.074,227.805z M335.983,210.291c-2.673,2.673-6.233,4.145-10.025,4.145h-31.589
		l33.483-25.692c0.822-0.629,1.594-1.32,2.319-2.058c4.78,1.47,8.454,5.348,9.616,10.336
		C340.903,201.832,339.481,206.793,335.983,210.291z M371.957,156.604c-0.601,2.741-1.798,6.961-4.14,12.005
		c-3.231,6.961-9.286,16.743-20.269,26.492c-1.66-6.968-6.459-12.528-12.818-15.243c2.443-5.743,2.377-12.346-0.284-18.078
		C351.994,154.713,365.867,155.629,371.957,156.604z M324.36,161.069c0.761,0.761,1.445,1.627,2.034,2.572
		c3.119,5.011,2.789,11.511-0.825,16.178c-0.747,0.968-1.614,1.832-2.582,2.572l-30.621,23.496
		c-1.928-7.795-5.661-15.226-11.178-21.643l23.113-23.114c0.071-0.07,0.139-0.143,0.208-0.216
		C310.039,155.582,318.936,155.648,324.36,161.069z M195.595,53.379C195.595,28.356,215.953,8,240.975,8
		s45.379,20.356,45.379,45.379s-20.356,45.379-45.379,45.379S195.595,78.401,195.595,53.379z M135.475,128.23v-23.546
		c25.665-3.132,51.609-5.141,77.363-5.972c8.176,5.093,17.816,8.046,28.137,8.046c10.321,0,19.961-2.953,28.136-8.046
		c25.755,0.831,51.699,2.84,77.364,5.973v23.544c-13.3,1.627-26.706,2.94-40.059,3.948c-0.628-0.844-1.3-1.665-2.064-2.429
		c-1.191-1.192-2.538-2.259-4.001-3.169c-6.217-3.87-13.895-4.331-20.443-1.545c-2.73-6.392-8.333-11.212-15.354-12.849
		c-7.52-1.744-15.27,0.475-20.735,5.939c-0.925,0.925-1.742,1.927-2.478,2.977c-1.218-1.739-2.693-3.317-4.405-4.676
		c-5.267-4.182-12.024-5.739-18.574-4.29c-0.086,0.014-0.172,0.031-0.257,0.051c-7.132,1.664-12.887,6.767-15.548,13.371
		c-6.448-2.592-13.817-2.04-19.94,1.765c-1.445,0.898-2.788,1.965-3.991,3.169c-0.575,0.575-1.104,1.181-1.602,1.803
		C163.131,131.266,149.225,129.911,135.475,128.23z M158.61,161.819c5.384-5.382,14.254-5.484,19.708-0.3
		c0.003,0.003,0.006,0.006,0.009,0.009c0.005,0.005,0.009,0.01,0.014,0.015c0,0,0.001,0.001,0.001,0.001
		c0.102,0.11,0.206,0.218,0.308,0.318l22.387,22.387c-5.549,6.456-9.297,13.938-11.213,21.785l-29.83-22.894
		c-1.085-0.836-2.025-1.797-2.809-2.877c-3.449-4.695-3.688-10.93-0.611-15.881C157.154,163.455,157.838,162.592,158.61,161.819z
		 M110,156.583c6.198-1.015,20.456-1.964,38.646,5.667c-2.742,5.667-2.931,12.122-0.629,17.846
		c-6.524,2.63-11.575,8.281-13.299,15.295C116.872,179.687,111.529,163.44,110,156.583z M145.153,209.5
		c-2.708-3.411-3.694-7.798-2.708-12.036c0.015-0.063,0.028-0.127,0.04-0.19c1.232-4.979,5.087-8.886,9.937-10.255
		c0.824,0.882,1.719,1.711,2.697,2.464l33.078,25.387h-31.928C151.914,214.869,147.862,212.912,145.153,209.5z M142.441,240.283
		c-1.117-4.811,0.305-9.771,3.803-13.27c2.673-2.673,6.233-4.145,10.025-4.145h31.589l-33.477,25.687
		c-0.824,0.63-1.599,1.323-2.325,2.063C147.276,249.149,143.603,245.271,142.441,240.283z M157.868,276.226
		c-0.773-0.773-1.458-1.637-2.033-2.56c-3.116-5.016-2.786-11.517,0.824-16.182c0.747-0.97,1.615-1.834,2.586-2.576l30.62-23.495
		c1.927,7.795,5.661,15.226,11.177,21.643l-23.112,23.112c-0.074,0.073-0.145,0.149-0.217,0.225
		C172.183,281.717,163.287,281.645,157.868,276.226z M186.103,303.934c-0.929-0.579-1.79-1.263-2.562-2.035
		c-5.422-5.421-5.494-14.317-0.168-19.847c0.068-0.065,0.134-0.127,0.205-0.198l23.13-23.13c6.417,5.517,13.849,9.251,21.644,11.178
		l-23.498,30.624c-0.739,0.966-1.605,1.834-2.581,2.586C197.615,306.72,191.116,307.048,186.103,303.934z M209.146,307.709
		c0.739-0.726,1.431-1.497,2.059-2.318l25.69-33.481v31.587c0,3.793-1.472,7.353-4.145,10.025
		c-3.498,3.499-8.459,4.918-13.267,3.805C214.494,316.164,210.616,312.489,209.146,307.709z M197.197,363.429
		c16.188-7.194,27.619-21.438,31.053-38.451c3.166-0.818,6.145-2.328,8.72-4.496V429.64c-9.194-14.95-23.399-27.502-40.811-35.671
		l-13.21-6.2c-19.261-9.038-35.81-21.161-49.185-36.031c-1.488-1.656-2.922-3.341-4.314-5.047
		c5.119,4.405,10.528,8.529,16.239,12.338C161.063,369.285,180.321,370.93,197.197,363.429z M94.49,340.679
		c-14.659-7.858-21.897-21.533-21.516-40.645c0.604-30.218,10.391-54.582,17.535-72.372c2.138-5.322,4.072-10.138,5.551-14.523
		c6.901,16.652,16.379,32.837,35.781,57.301c10.949,13.806,15.568,30.908,12.674,46.922c-1.691,9.354-5.915,17.271-11.517,21.811
		c-10.689-9.468-19.954-20.295-27.655-32.372c-1.054-1.652-3.144-2.297-4.948-1.526c-1.8,0.771-2.777,2.732-2.309,4.634
		c3.147,12.768,7.727,24.962,13.68,36.478C107.409,345.684,100.926,344.129,94.49,340.679z M347.988,366.442
		c-13.416,17.459-29.974,31.667-49.215,42.231l-13.209,7.261c-20.062,11.02-35.865,28.815-44.592,49.843
		c-8.72-21.026-24.52-38.821-44.585-49.843l-13.211-7.261c-19.265-10.583-35.822-24.791-49.214-42.23
		c-2.87-3.737-5.543-7.584-8.049-11.521c0.626,0.725,1.259,1.446,1.902,2.162c14.095,15.672,31.501,28.432,51.735,37.926l13.21,6.2
		c21.584,10.128,37.771,27.478,44.41,47.602c0.541,1.64,2.072,2.747,3.798,2.747h0.001c1.726,0,3.257-1.106,3.798-2.745
		c6.649-20.127,22.84-37.478,44.421-47.604l13.209-6.2c20.209-9.477,37.615-22.237,51.737-37.928
		c0.641-0.713,1.271-1.432,1.895-2.154C353.526,358.864,350.855,362.709,347.988,366.442z M370.158,346.424
		c5.958-11.524,10.544-23.73,13.696-36.517c0.469-1.901-0.509-3.863-2.31-4.634c-1.803-0.773-3.896-0.124-4.947,1.527
		c-7.694,12.075-16.956,22.902-27.646,32.371c-5.602-4.539-9.826-12.456-11.518-21.81c-2.895-16.014,1.726-33.116,12.675-46.923
		c19.402-24.464,28.88-40.648,35.781-57.301c1.479,4.386,3.413,9.201,5.551,14.523c7.145,17.79,16.931,42.154,17.535,72.372
		C409.703,336.399,382.06,344.586,370.158,346.424z"/>
	<path class="st0" d="M240.975,89.043c19.665,0,35.663-15.999,35.663-35.664s-15.998-35.663-35.663-35.663s-35.664,15.998-35.664,35.663
		S221.31,89.043,240.975,89.043z M240.975,25.716c15.254,0,27.663,12.409,27.663,27.663s-12.409,27.664-27.663,27.664
		s-27.664-12.41-27.664-27.664S225.721,25.716,240.975,25.716z"/>
	<path class="st0" d="M268.577,191.189c-15.142-15.142-39.779-15.144-54.923,0c-15.143,15.143-15.143,39.78,0,54.923
		c7.571,7.571,17.517,11.357,27.461,11.357c9.945,0,19.891-3.786,27.462-11.357C283.719,230.97,283.719,206.332,268.577,191.189z
		 M219.31,240.456c-12.023-12.023-12.023-31.587,0-43.61c6.012-6.012,13.908-9.018,21.806-9.018c7.896,0,15.793,3.006,21.805,9.018
		c12.023,12.023,12.023,31.587,0,43.61C250.897,252.48,231.333,252.479,219.31,240.456z"/>
</g>
<g>
</g>
<g>
</g>
<g>
</g>
<g>
</g>
<g>
</g>
<g>
</g>
<g>
</g>
<g>
</g>
<g>
</g>
<g>
</g>
<g>
</g>
<g>
</g>
<g>
</g>
<g>
</g>
<g>
</g>
</svg>
