<?xml version="1.0" encoding="iso-8859-1"?>
<!-- Generator: Adobe Illustrator 18.0.0, SVG Export Plug-In . SVG Version: 6.00 Build 0)  -->
<!DOCTYPE svg PUBLIC "-//W3C//DTD SVG 1.1//EN" "http://www.w3.org/Graphics/SVG/1.1/DTD/svg11.dtd">
<svg version="1.1" id="Capa_1" xmlns="http://www.w3.org/2000/svg" xmlns:xlink="http://www.w3.org/1999/xlink" x="0px" y="0px"
	 viewBox="0 0 451.978 451.978" style="enable-background:new 0 0 451.978 451.978;" xml:space="preserve">
<g>
	<path d="M320.633,213.079c0,23.653,19.243,42.896,42.896,42.896s42.896-19.243,42.896-42.896s-19.243-42.896-42.896-42.896
		S320.633,189.426,320.633,213.079z M398.424,213.079c0,19.241-15.654,34.896-34.896,34.896s-34.896-15.654-34.896-34.896
		s15.654-34.896,34.896-34.896S398.424,193.838,398.424,213.079z"/>
	<path d="M273.311,201.814c-23.653,0-42.896,19.243-42.896,42.896s19.243,42.896,42.896,42.896s42.896-19.243,42.896-42.896
		S296.963,201.814,273.311,201.814z M273.311,279.605c-19.241,0-34.896-15.654-34.896-34.896s15.654-34.896,34.896-34.896
		s34.896,15.654,34.896,34.896S292.552,279.605,273.311,279.605z"/>
	<path d="M88.45,170.183c-23.653,0-42.896,19.243-42.896,42.896s19.243,42.896,42.896,42.896s42.896-19.243,42.896-42.896
		S112.103,170.183,88.45,170.183z M88.45,247.974c-19.241,0-34.896-15.654-34.896-34.896s15.654-34.896,34.896-34.896
		s34.896,15.654,34.896,34.896S107.691,247.974,88.45,247.974z"/>
	<path d="M178.667,201.814c-23.653,0-42.896,19.243-42.896,42.896s19.243,42.896,42.896,42.896s42.896-19.243,42.896-42.896
		S202.32,201.814,178.667,201.814z M178.667,279.605c-19.241,0-34.896-15.654-34.896-34.896s15.654-34.896,34.896-34.896
		s34.896,15.654,34.896,34.896S197.909,279.605,178.667,279.605z"/>
	<path d="M395.801,51.39H56.177C25.201,51.39,0,76.591,0,107.567c0,30.403,24.278,55.243,54.465,56.151
		c-15.964,10.937-25.895,29.159-25.895,49.361c0,15.839,6.325,31.07,17.453,42.253l-9.887,20.104
		c-0.975,1.982-0.158,4.379,1.824,5.354l19.675,9.676c1.982,0.974,4.379,0.158,5.354-1.824l8.865-18.026
		c5.386,1.555,10.952,2.341,16.593,2.341c11.826,0,23.4-3.528,33.176-10.029c4.56,14.182,14.446,26.408,27.46,33.837l-4.764,17.967
		c-0.566,2.136,0.706,4.326,2.841,4.892l21.194,5.62c1.026,0.273,2.118,0.126,3.035-0.407s1.585-1.408,1.857-2.434l4.725-17.819
		c0.234,0.003,0.465,0.005,0.694,0.005c18.722,0,36.014-8.572,47.322-23.197c11.307,14.625,28.599,23.197,47.321,23.197
		c0.229,0,0.46-0.001,0.694-0.005l4.725,17.819c0.271,1.025,0.94,1.9,1.857,2.434c0.616,0.357,1.31,0.541,2.009,0.541
		c0.343,0,0.688-0.044,1.025-0.134l21.194-5.62c2.135-0.566,3.407-2.756,2.841-4.892l-4.764-17.967
		c13.015-7.429,22.9-19.655,27.46-33.837c9.776,6.501,21.35,10.029,33.176,10.029c5.641,0,11.208-0.786,16.593-2.341l8.865,18.026
		c0.975,1.982,3.373,2.799,5.354,1.824l19.675-9.676c0.952-0.468,1.679-1.295,2.021-2.299c0.342-1.004,0.271-2.104-0.197-3.055
		l-9.887-20.104c11.128-11.184,17.454-26.415,17.454-42.253c0-20.202-9.93-38.424-25.895-49.361
		c30.187-0.908,54.465-25.748,54.465-56.151C451.978,76.591,426.777,51.39,395.801,51.39z M56.177,59.39h339.625
		c26.565,0,48.177,21.612,48.177,48.177c0,1.721-0.095,3.42-0.272,5.094c-0.094,0-0.18-0.003-0.275-0.003
		c-13.042,0-26.167,2.95-37.953,8.531c-10.724,5.078-22.664,7.761-34.529,7.761c-11.866,0-23.806-2.684-34.529-7.761
		c-11.787-5.581-24.911-8.531-37.953-8.531c-13.029,0-26.152,2.95-37.953,8.531c-10.724,5.078-22.664,7.761-34.529,7.761
		c-11.854,0-23.794-2.684-34.528-7.761c-24.057-11.398-51.641-11.427-75.713-0.086c-0.065,0.027-0.13,0.055-0.194,0.085
		c-10.724,5.078-22.659,7.761-34.516,7.761c-12.023,0-23.641-2.611-34.529-7.761c-11.912-5.64-25.059-8.554-38.231-8.516
		C8.095,110.995,8,109.292,8,107.567C8,81.002,29.612,59.39,56.177,59.39z M395.801,155.744h-15.563
		c-1.976,0-3.656,1.442-3.954,3.396s0.874,3.832,2.759,4.422c21.75,6.807,36.363,26.707,36.363,49.518
		c0,14.601-6.206,28.606-17.025,38.426c-1.32,1.199-1.688,3.127-0.901,4.727l9.416,19.145l-12.496,6.146l-8.624-17.534
		c-0.896-1.822-3.014-2.682-4.925-2.005c-5.57,1.974-11.398,2.974-17.323,2.974c-12.017,0-23.73-4.203-32.984-11.834
		c-1.08-0.891-2.548-1.152-3.869-0.688c-1.322,0.464-2.304,1.584-2.591,2.955c-3.213,15.356-13.551,28.725-27.655,35.763
		c-1.698,0.847-2.567,2.771-2.081,4.604l4.55,17.16l-13.461,3.569l-4.523-17.059c-0.467-1.763-2.062-2.975-3.864-2.975
		c-0.088,0-0.176,0.003-0.265,0.009c-1.325,0.087-2.428,0.128-3.474,0.128c-17.938,0-34.363-9.085-43.936-24.304
		c-0.732-1.164-2.011-1.87-3.386-1.87s-2.654,0.706-3.386,1.87c-9.573,15.219-25.998,24.304-43.936,24.304
		c-1.045,0-2.149-0.041-3.474-0.128c-1.907-0.124-3.639,1.117-4.129,2.966l-4.523,17.059l-13.461-3.569l4.55-17.16
		c0.486-1.834-0.383-3.757-2.081-4.604c-14.104-7.038-24.442-20.406-27.655-35.763c-0.287-1.371-1.269-2.491-2.591-2.955
		c-1.321-0.464-2.789-0.202-3.869,0.688c-9.254,7.631-20.968,11.834-32.984,11.834c-5.925,0-11.753-1-17.323-2.974
		c-1.913-0.677-4.03,0.185-4.925,2.005l-8.624,17.534l-12.497-6.146l9.416-19.145c0.787-1.6,0.419-3.528-0.901-4.727
		c-10.82-9.82-17.025-23.826-17.025-38.426c0-22.811,14.613-42.71,36.363-49.518c1.886-0.59,3.058-2.469,2.759-4.422
		s-1.979-3.396-3.954-3.396H56.177c-22.021,0-40.624-14.856-46.349-35.068c11.471,0.187,22.877,2.832,33.255,7.746
		c11.968,5.66,24.736,8.53,37.952,8.53c12.967,0,26.018-2.919,37.758-8.445c0.066-0.027,0.131-0.056,0.196-0.086
		c21.939-10.395,47.105-10.395,69.046,0.001c11.799,5.58,24.922,8.53,37.951,8.53c13.042,0,26.166-2.95,37.952-8.53
		c10.736-5.078,22.677-7.762,34.53-7.762c11.866,0,23.806,2.684,34.529,7.762c11.787,5.581,24.911,8.531,37.953,8.531
		c13.042,0,26.166-2.95,37.953-8.531c10.337-4.895,21.806-7.558,33.248-7.744C436.425,140.888,417.822,155.744,395.801,155.744z"/>
	<path d="M170.413,346.593c-0.758-0.837-1.834-1.314-2.964-1.314c-1.129,0-2.206,0.477-2.964,1.314
		c-0.188,0.207-4.652,5.148-9.182,11.396c-6.506,8.975-9.668,15.774-9.668,20.784c0,12.028,9.786,21.814,21.814,21.814
		c12.028,0,21.813-9.786,21.813-21.814c0-5.01-3.163-11.809-9.668-20.784C175.065,351.741,170.601,346.8,170.413,346.593z
		 M167.449,392.588c-7.617,0-13.814-6.197-13.814-13.814c0-4.936,7.328-15.617,13.815-23.393
		c6.486,7.771,13.813,18.449,13.813,23.393C181.262,386.391,175.065,392.588,167.449,392.588z"/>
	<path d="M287.493,346.593c-0.758-0.837-1.834-1.314-2.964-1.314s-2.206,0.477-2.964,1.314c-0.188,0.207-4.652,5.148-9.182,11.396
		c-6.506,8.975-9.668,15.774-9.668,20.784c0,12.028,9.786,21.814,21.814,21.814s21.814-9.786,21.814-21.814
		c0-5.01-3.163-11.809-9.668-20.784C292.146,351.741,287.681,346.8,287.493,346.593z M284.529,392.588
		c-7.617,0-13.814-6.197-13.814-13.814c0-4.936,7.328-15.617,13.815-23.393c6.486,7.771,13.813,18.449,13.813,23.393
		C298.343,386.391,292.146,392.588,284.529,392.588z"/>
	<path d="M52.049,304.808c-1.129,0-2.206,0.477-2.964,1.314c-2.133,2.354-20.841,23.347-20.841,35.477
		c0,13.126,10.679,23.805,23.805,23.805c13.125,0,23.804-10.679,23.804-23.805c0-12.13-18.707-33.123-20.84-35.477
		C54.255,305.285,53.179,304.808,52.049,304.808z M52.049,357.404c-8.715,0-15.805-7.09-15.805-15.805
		c0-5.958,8.752-18.322,15.805-26.703c7.052,8.381,15.804,20.745,15.804,26.703C67.854,350.314,60.764,357.404,52.049,357.404z"/>
	<path d="M399.929,304.808c-1.129,0-2.206,0.477-2.964,1.314c-2.133,2.354-20.84,23.347-20.84,35.477
		c0,13.126,10.679,23.805,23.804,23.805c13.126,0,23.805-10.679,23.805-23.805c0-12.13-18.708-33.123-20.841-35.477
		C402.134,305.285,401.058,304.808,399.929,304.808z M399.929,357.404c-8.714,0-15.804-7.09-15.804-15.805
		c0-5.958,8.753-18.323,15.805-26.704c7.052,8.376,15.804,20.737,15.804,26.704C415.733,350.314,408.644,357.404,399.929,357.404z"
		/>
</g>
<g>
</g>
<g>
</g>
<g>
</g>
<g>
</g>
<g>
</g>
<g>
</g>
<g>
</g>
<g>
</g>
<g>
</g>
<g>
</g>
<g>
</g>
<g>
</g>
<g>
</g>
<g>
</g>
<g>
</g>
</svg>
