<?xml version="1.0" encoding="utf-8"?>
<!-- Generator: Adobe Illustrator 20.1.0, SVG Export Plug-In . SVG Version: 6.00 Build 0)  -->
<svg version="1.1" id="Capa_1" xmlns="http://www.w3.org/2000/svg" xmlns:xlink="http://www.w3.org/1999/xlink" x="0px" y="0px"
	 viewBox="0 0 482.9 482.9" style="enable-background:new 0 0 482.9 482.9;" xml:space="preserve">
<style type="text/css">
	.st0{fill:#4BFFBA;}
</style>
<path class="st0" d="M346.9,211.4c-1.9-1.1-4.4-0.4-5.5,1.5l-10.9,19.3c-6.4-5-13.2-9.4-20.1-13.2l6.4-21c0.6-2.1-0.5-4.3-2.7-5
	c-2.1-0.6-4.3,0.6-5,2.7l-6,19.7c-7.8-3.7-15.9-6.7-24.2-8.9c0.5-12.4,0.7-21.5,0.8-25.9c9.9-3.1,20.3-4.7,30.7-4.7
	c9.3,0,16.9-7.6,16.9-16.9v-7.9c0-2.2-1.8-4-4-4h-51.9c0.4-1.2,0.7-2.5,0.7-3.8v-0.5c0-4.2-2.3-7.9-5.7-9.9
	c3.5-3.7,5.7-8.7,5.7-14.2V59.5c0-5.5-2.2-10.5-5.7-14.2c3.4-2,5.7-5.7,5.7-9.9v-0.5c0-4.5-2.6-8.4-6.5-10.3
	C265.4,11,254.3,0,240.6,0c-13.8,0-25,11.1-25.1,24.9c-3.5,2-5.9,5.7-5.9,10v0.5c0,4.2,2.3,7.9,5.7,9.9c-3.5,3.7-5.7,8.7-5.7,14.2
	v59.3c0,5.5,2.2,10.5,5.7,14.2c-3.4,2-5.7,5.7-5.7,9.9v0.5c0,1.3,0.2,2.6,0.7,3.8h-51.9c-2.2,0-4,1.8-4,4v7.9
	c0,9.3,7.6,16.9,16.9,16.9c10.5,0,20.8,1.6,30.7,4.7c0.1,4.3,0.4,13.5,0.8,25.9c-7.9,2.1-15.7,5-23.3,8.5l-5.9-19.2
	c-0.6-2.1-2.9-3.3-5-2.7c-2.1,0.6-3.3,2.9-2.7,5l6.2,20.5c-7,3.8-13.8,8.1-20.3,13.1L141.4,213c-1.1-1.9-3.5-2.6-5.5-1.5
	c-1.9,1.1-2.6,3.5-1.5,5.4l11.3,20c-2.6,2.3-5.2,4.7-7.7,7.2c-0.8,0.8-1.2,1.8-1.2,2.8s0.4,2.1,1.2,2.8
	c19.4,19.4,43.3,32.6,69.4,38.8c4.5,61.9,13.3,144.2,29.7,191.7c0.6,1.6,2.1,2.7,3.8,2.7s3.2-1.1,3.8-2.7
	c16.5-47.5,25.2-129.8,29.7-191.7c26.1-6.1,50-19.4,69.4-38.8c0.8-0.8,1.2-1.8,1.2-2.8s-0.4-2.1-1.2-2.8c-2.3-2.3-4.6-4.5-7-6.6
	l11.6-20.6C349.5,215,348.8,212.5,346.9,211.4z M309.5,155.1h9.9v3.9c0,4.9-4,8.9-8.9,8.9c-0.4,0-0.7,0-1.1,0V155.1z M294.4,155.1
	h7.1v13.2c-2.4,0.2-4.7,0.5-7.1,0.8V155.1z M240.6,8c8.9,0,16.2,6.8,17,15.4h-34C224.5,14.8,231.8,8,240.6,8z M217.7,34.9
	c0-1.9,1.6-3.5,3.5-3.5h39.6c1.9,0,3.5,1.6,3.5,3.5v0.5c0,1.9-1.6,3.5-3.5,3.5h-9.1h-21.3h-9.1c-1.9,0-3.5-1.6-3.5-3.5L217.7,34.9
	L217.7,34.9z M240.9,66l8.7,8.7l-8.8,8.7l-8.7-8.7L240.9,66z M240.9,54.6l-7.8-7.8h15.6L240.9,54.6z M255.3,80.4l8.8,8.7l-8.7,8.7
	l-8.8-8.8L255.3,80.4z M235.3,89.1l-8.8,8.8l-8.7-8.7l8.8-8.8L235.3,89.1z M240.9,94.8l8.8,8.8l-8.8,8.8l-8.8-8.8L240.9,94.8z
	 M240.9,123.6l7.8,7.8h-15.6L240.9,123.6z M246.6,117.9l8.8-8.8l8.8,8.8v0.7c0,4.5-2.4,8.5-6,10.7L246.6,117.9z M261,103.5l3.2-3.2
	v6.4L261,103.5z M261,74.7l3.2-3.2v6.4L261,74.7z M255.3,69l-8.7-8.7l11.6-11.6c3.6,2.2,6,6.2,6,10.7v0.7L255.3,69z M217.7,59.5
	c0-4.5,2.4-8.5,6-10.7l11.6,11.6l-8.8,8.7l-8.8-8.8V59.5z M217.7,71.5l3.2,3.2l-3.2,3.2V71.5z M217.7,100.3l3.2,3.2l-3.2,3.2V100.3z
	 M217.7,118l8.8-8.8l8.8,8.8l-11.6,11.6c-3.6-2.2-6-6.2-6-10.7L217.7,118L217.7,118z M217.7,142.8c0-1.9,1.6-3.5,3.5-3.5h9.1h21.3
	h9.1c1.9,0,3.5,1.6,3.5,3.5v0.5c0,1.9-1.6,3.5-3.5,3.5h-39.6c-1.9,0-3.5-1.6-3.5-3.5L217.7,142.8L217.7,142.8z M172.4,167.9
	c-0.4,0-0.7,0-1.1,0c-4.9,0-8.9-4-8.9-8.9v-3.9h9.9V167.9z M187.4,169.1c-2.3-0.3-4.7-0.6-7.1-0.8v-13.2h7.1V169.1z M195.4,170.6
	v-15.5h91v15.5c-10.8,2.4-21.2,6.4-30.8,12l-14.6,8.4l-14.6-8.4C216.6,177,206.2,173,195.4,170.6z M271.7,183.6
	c-0.1,4.7-0.3,11.9-0.7,21.1c-1.2-0.3-2.4-0.5-3.6-0.7c0.2-8.6,0.3-14.9,0.4-18.6C269.1,184.7,270.4,184.1,271.7,183.6z
	 M222.2,210.8c12.4-1.7,25-1.7,37.5,0c1.6,3,2.4,6.3,2.4,9.7c0,11.6-9.5,21.1-21.1,21.1s-21.1-9.5-21.1-21.1
	C219.8,217.1,220.6,213.8,222.2,210.8z M222.2,189.4c0,0,0.1,0,0.1,0.1l14.6,8.4v3.7c-4.8,0.1-9.7,0.5-14.5,1.1
	C222.3,197.4,222.2,192.9,222.2,189.4z M244.9,201.6v-3.7l14.6-8.4c0,0,0.1-0.1,0.1-0.1c-0.1,3.4-0.2,7.9-0.3,13.3
	C254.6,202.1,249.8,201.7,244.9,201.6z M214.5,203.9c-1.2,0.2-2.4,0.5-3.6,0.7c-0.3-9.2-0.6-16.4-0.7-21.1c1.3,0.5,2.6,1.1,3.9,1.7
	C214.2,189.3,214.3,195.6,214.5,203.9z M201.5,215.2c3.8-1.1,7.6-2.1,11.4-2.9c-0.8,2.6-1.2,5.4-1.2,8.1c0,16,13.1,29.1,29.1,29.1
	s29.1-13.1,29.1-29.1c0-2.8-0.4-5.5-1.2-8.1c3.8,0.8,7.7,1.8,11.4,2.9c0.2,1.7,0.4,3.5,0.4,5.3c0,21.9-17.8,39.7-39.7,39.7
	s-39.7-17.8-39.7-39.7C201.2,218.7,201.3,217,201.5,215.2z M215.6,290.2c1.7,0.3,3.4,0.5,5,0.8c1,23.2,2.1,45.2,3.3,65.7
	c-0.7,0.4-1.4,0.8-2.1,1.3C219.2,334.5,217.1,311.2,215.6,290.2z M240.9,465.6c-7.8-27.1-13.7-62.5-18-98.4c2-1.9,4.2-3.4,6.8-4.5
	c6.9-3,15.5-3,22.4,0c2.6,1.1,4.8,2.7,6.8,4.5C254.6,403.1,248.7,438.5,240.9,465.6z M228.6,291.8c2.7,0.2,5.5,0.4,8.3,0.5v60.3
	c-1.7,0.2-3.5,0.5-5.1,0.9C230.6,334.2,229.5,313.5,228.6,291.8z M244.9,352.6v-60.3c2.8-0.1,5.5-0.2,8.3-0.5
	c-0.9,21.7-1.9,42.4-3.1,61.7C248.4,353.1,246.7,352.8,244.9,352.6z M260,357.9c-0.7-0.4-1.4-0.9-2.1-1.3
	c1.3-20.4,2.4-42.5,3.3-65.7c1.7-0.2,3.4-0.5,5-0.8C264.7,311.2,262.7,334.5,260,357.9z M240.9,284.4c-35.4,0-68.7-13.3-94.3-37.4
	c13.8-13.1,29.8-22.7,46.7-28.9c0,0.8-0.1,1.7-0.1,2.5c0,26.3,21.4,47.7,47.7,47.7s47.7-21.4,47.7-47.7c0-0.8,0-1.7-0.1-2.5
	c16.9,6.2,32.8,15.9,46.7,28.9C309.6,271.1,276.3,284.4,240.9,284.4z"/>
</svg>
