<?xml version="1.0" encoding="utf-8"?>
<!-- Generator: Adobe Illustrator 20.1.0, SVG Export Plug-In . SVG Version: 6.00 Build 0)  -->
<svg version="1.1" id="Capa_1" xmlns="http://www.w3.org/2000/svg" xmlns:xlink="http://www.w3.org/1999/xlink" x="0px" y="0px"
	 viewBox="0 0 427.6 427.6" style="enable-background:new 0 0 427.6 427.6;" xml:space="preserve">
<style type="text/css">
	.st0{fill:#4BFFBA;}
</style>
<g>
	<path class="st0" d="M371.7,183c-0.4-0.4-0.8-0.8-1.3-1l-88.7-41.1c-0.5-0.4-1.1-0.6-1.8-0.7l-66.7-9.8c-0.4-0.1-0.8-0.1-1.2,0
		l-66.2,10.2c-0.4,0.1-0.7,0.2-1.1,0.3l0,0L56.3,182c-0.5,0.2-1,0.6-1.3,1L7,238.6c-1.2,1.4-1.3,3.4-0.3,4.9
		c0.1,0.1,0.1,0.2,0.2,0.2l0,0l24.6,30.9c0,0,0,0,0,0l0,0c0.2,0.2,1.5,1.3,1.5,1.3l177.8,150.7c0.7,0.6,1.7,0.9,2.6,0.9
		s1.8-0.3,2.6-0.9l178.2-151c0,0,0.9-0.8,1.1-1l0,0c0,0,0,0,0,0l24.6-30.9l0,0c0.1-0.1,0.1-0.1,0.2-0.2c1-1.5,0.9-3.5-0.3-4.9
		L371.7,183z M366.2,188.9l37.6,43.5l-55-19.4L312,167.4l-7.8-7.3L366.2,188.9z M334.2,207.9l-46.7-16.5l19.1-17.1L334.2,207.9z
		 M148.2,148.4l64.5-9.9l65,9.5l23.8,20.2l-22.7,20.3l-64.5,9.9l-65-9.5l-23.8-20.2L148.2,148.4z M205.1,304.5l-85.2-18.3l54.1-25.5
		L205.1,304.5z M154.1,197.7l53,7.7l-30.9,42.3L154.1,197.7z M207.1,313.2l-30.7,38.1l-55-56.5L207.1,313.2z M180.3,255.7l33.1-45.3
		l33.1,45.3l-33.1,46.7L180.3,255.7z M221.7,304.5l31-43.8l54.1,25.5L221.7,304.5z M305.3,294.8l-55,56.5l-30.7-38.1L305.3,294.8z
		 M250.5,247.7l-30.7-42.1l52.9-8.1L250.5,247.7z M139.7,191.2l-47.1,16.6l27.4-33.4L139.7,191.2z M60.5,188.9l63.2-29.4
		c0,0-7.2,6.5-7.3,6.7l0,0L78,213l-55,19.4L60.5,188.9z M16.7,243.1l51.5-18.2l-33.5,40.8L16.7,243.1z M79.1,224.2l23.2,58.3
		l-60.4-12.9L79.1,224.2z M49.4,279.4l55.2,11.8l1.4,36.1L49.4,279.4z M85.6,218.8l59.8-21.1l24.8,56l-59.5,28.1L85.6,218.8z
		 M114.3,334.3l-1.4-36.8l60.5,62.2l25.9,46.7L114.3,334.3z M213.4,415.3l-31.9-57.6l31.9-39.6l31.9,39.6L213.4,415.3z M312.5,334.3
		l-85,72l25.9-46.7l60.5-62.2L312.5,334.3z M256.6,253.8l24.8-56l59.8,21.1l-25,63L256.6,253.8z M320.7,327.3l1.4-36.1l55.2-11.8
		L320.7,327.3z M324.4,282.5l23.2-58.3l37.2,45.4L324.4,282.5z M392,265.7l-33.5-40.8l51.5,18.2L392,265.7z"/>
	<path class="st0" d="M214.3,95.5c2.2,0,4-1.8,4-4V4c0-2.2-1.8-4-4-4s-4,1.8-4,4v87.5C210.3,93.7,212.1,95.5,214.3,95.5z"/>
	<path class="st0" d="M336.4,134c0.8,0,1.7-0.3,2.4-0.8L420,71.3c1.8-1.3,2.1-3.8,0.8-5.6c-1.3-1.8-3.8-2.1-5.6-0.8l-81.2,61.8
		c-1.8,1.3-2.1,3.8-0.8,5.6C334,133.5,335.2,134,336.4,134z"/>
	<path class="st0" d="M8.6,71.3l81.2,61.8c0.7,0.6,1.6,0.8,2.4,0.8c1.2,0,2.4-0.5,3.2-1.6c1.3-1.8,1-4.3-0.8-5.6L13.4,65
		c-1.8-1.3-4.3-1-5.6,0.8C6.5,67.5,6.8,70,8.6,71.3z"/>
</g>
</svg>
