<?xml version="1.0" encoding="iso-8859-1"?>
<!-- Generator: Adobe Illustrator 18.0.0, SVG Export Plug-In . SVG Version: 6.00 Build 0)  -->
<!DOCTYPE svg PUBLIC "-//W3C//DTD SVG 1.1//EN" "http://www.w3.org/Graphics/SVG/1.1/DTD/svg11.dtd">
<svg version="1.1" id="Capa_1" xmlns="http://www.w3.org/2000/svg" xmlns:xlink="http://www.w3.org/1999/xlink" x="0px" y="0px"
	 viewBox="0 0 463.179 463.179" style="enable-background:new 0 0 463.179 463.179;" xml:space="preserve">
	 <style type="text/css">
		.st0{fill:#333333;}
	 </style>
<g>
	<path class="st0" d="M397.547,384.064c-0.639-1.524-16.235-37.466-68.309-48.666c-1.97-0.423-3.992-0.805-6.16-1.165
		c-0.721-0.352-1.462-0.67-2.219-0.955c6.568-7.999,7.878-19.573,2.416-29.037c-5.464-9.463-16.141-14.117-26.353-12.429
		c0.104-0.631,0.18-1.265,0.236-1.899c13.659-0.967,25.163-10.706,28.43-23.884c18.363-0.445,33.164-15.521,33.164-33.99
		c0-17.604-13.449-32.127-30.612-33.833c0.095-0.828,0.143-1.661,0.143-2.497c0-12.329-10.031-22.36-22.36-22.36
		c-3.871,0-7.652,1.009-10.983,2.893c-3.911-4.835-9.423-8.189-15.529-9.406l-1.21-26.323h13.061c2.209,0,4-1.791,4-4v-28.33
		c0-2.209-1.791-4-4-4h-12.163V87.991h2.54c2.209,0,4-1.791,4-4v-3.785c0-28.498-22.143-51.905-50.125-53.961V4c0-2.209-1.791-4-4-4
		s-4,1.791-4,4v22.245c-27.982,2.056-50.125,25.464-50.125,53.961v3.785c0,2.209,1.791,4,4,4h2.54v5.5
		c-3.604-1.395-7.45-2.122-11.386-2.122c-14.618,0-27.213,10.079-30.664,23.971c-18.364,0.445-33.166,15.521-33.166,33.99
		c0,17.605,13.45,32.129,30.615,33.833c-0.097,0.831-0.145,1.664-0.145,2.496c0,12.335,10.035,22.37,22.37,22.37
		c3.866,0,7.645-1.011,10.978-2.896c2.436,3.022,5.511,5.468,8.999,7.183l-1.604,34.844c-4.089-0.195-8.204,0.542-11.981,2.174
		c-2.079-3.215-4.959-5.861-8.387-7.655c-5.294-2.768-11.35-3.309-17.047-1.526c-5.699,1.785-10.363,5.684-13.127,10.972
		c-0.389,0.739-0.734,1.501-1.035,2.281c-7.268-2.938-15.258-3.271-22.838-0.897c-8.668,2.713-15.761,8.642-19.969,16.691
		c-4.21,8.048-5.035,17.251-2.322,25.915c2.633,8.409,8.294,15.335,15.957,19.569c-2.59,10.66,0.651,21.965,8.271,29.685
		c-31.084,14.974-41.298,38.471-41.812,39.697c-0.647,1.545-0.263,3.329,0.962,4.471c0.322,0.301,7.374,6.761,20.532,12.073
		c-12.263,25.434-8.881,45.871-8.672,47.044c0.294,1.649,1.585,2.939,3.233,3.234c0.428,0.076,3.463,0.584,8.4,0.584
		c13.224-0.001,40.076-3.659,66.893-28.982c1.631,0.321,3.295,0.486,4.966,0.486c1.385,0,2.774-0.125,4.155-0.354
		c-1.69,10.214,2.965,20.898,12.43,26.364c4.009,2.314,8.395,3.414,12.729,3.414c5.9,0,11.695-2.048,16.307-5.836
		c3.642,9.691,13.012,16.616,23.941,16.616c10.925,0,20.295-6.922,23.941-16.62c4.614,3.79,10.412,5.84,16.314,5.84
		c4.334,0,8.721-1.1,12.727-3.414c9.463-5.464,14.118-16.147,12.432-26.361c1.379,0.228,2.766,0.353,4.148,0.353
		c1.831,0,3.65-0.208,5.429-0.592c26.846,25.424,53.755,29.092,67.001,29.091c4.937,0,7.977-0.507,8.405-0.584
		c1.648-0.295,2.938-1.585,3.233-3.233c0.21-1.176,3.609-21.689-8.736-47.191c12.933-5.285,19.86-11.633,20.18-11.931
		C397.809,387.394,398.194,385.609,397.547,384.064z M311.905,374.789c-5.379,0-22.828-2.079-39.794-5.41
		c1.156-3.854,1.786-7.934,1.786-12.159c0-0.569-0.021-1.133-0.043-1.696c16.568-5.583,32.936-12.532,39.08-15.816
		c9.202,0.537,16.54,8.188,16.54,17.512C329.474,366.864,321.627,374.746,311.905,374.789z M231.509,391.607
		c-18.961,0-34.387-15.426-34.387-34.388s15.426-34.388,34.387-34.388c18.962,0,34.388,15.426,34.388,34.388
		S250.471,391.607,231.509,391.607z M189.165,358.915c-16.573,5.587-32.945,12.54-39.083,15.821
		c-9.198-0.546-16.532-8.199-16.532-17.516c0-9.647,7.849-17.526,17.57-17.564c5.378,0,22.825,2.08,39.787,5.41
		c-1.155,3.853-1.785,7.931-1.785,12.155C189.122,357.788,189.143,358.352,189.165,358.915z M251.214,319.707
		c3.449-17.144,5.615-34.802,5.844-41.763c5.066-7.692,15.361-10.218,23.435-5.557c8.353,4.822,11.256,15.556,6.471,23.929
		c-0.01,0.017-0.02,0.034-0.029,0.05c-0.004,0.006-0.007,0.013-0.011,0.02c-2.684,4.654-13.218,18.733-24.601,31.771
		C259.121,324.765,255.372,321.901,251.214,319.707z M229.815,314.875c-5.576-16.557-12.53-32.939-15.816-39.089
		c0.546-9.194,8.196-16.527,17.511-16.527c9.645,0,17.527,7.845,17.569,17.569c0,5.376-2.079,22.823-5.409,39.789
		c-3.854-1.156-7.934-1.786-12.16-1.786C230.941,314.832,230.378,314.853,229.815,314.875z M275.166,248.759l-85.449-40.374
		l1.296-28.15l82.802,39.126L275.166,248.759z M273.399,210.318l-81.988-38.741l1.296-28.156l79.34,37.482L273.399,210.318z
		 M276.922,112.183v20.327h-10.625v-20.327H276.922z M258.297,132.51h-22.625v-20.327h22.625V132.51z M227.672,132.51h-22.625
		v-20.327h22.625V132.51z M197.047,132.51h-10.625v-20.327h10.625V132.51z M178.422,132.513h-2.657v-20.33h2.657V132.513z
		 M275.582,257.803l0.21,4.568c-7.228-1.157-14.678,0.852-20.339,5.499c-3.644-9.688-13.015-16.61-23.944-16.61
		c-6.493,0-12.435,2.449-16.955,6.47l-26.532-12.537l1.296-28.149L275.582,257.803z M187.624,253.852l21.73,10.268
		c-0.688,1.195-1.287,2.447-1.779,3.752c-5.663-4.648-13.116-6.658-20.344-5.501L187.624,253.852z M182.533,272.387
		c8.31-4.797,18.996-1.996,23.89,6.238c0.045,0.086,0.094,0.169,0.146,0.251c2.72,4.751,9.607,20.836,15.172,37.105
		c-4.626,1.096-8.959,2.949-12.864,5.426c-13.157-11.593-27.394-22.316-33.25-25.95
		C171.501,287.221,174.461,277.047,182.533,272.387z M170.55,301.741c0.043,0.025,0.08,0.046,0.125,0.07
		c4.651,2.682,18.729,13.214,31.771,24.596c-3.393,3.202-6.259,6.953-8.453,11.115c-17.129-3.449-34.779-5.615-41.749-5.845
		c-7.699-5.066-10.229-15.36-5.567-23.435C151.499,299.889,162.232,296.986,170.55,301.741z M316.346,308.241
		c4.822,8.354,1.966,19.102-6.392,23.973c-0.01,0.006-0.038,0.022-0.066,0.04c-4.691,2.7-20.81,9.607-37.14,15.196
		c-1.096-4.625-2.949-8.958-5.425-12.862c11.567-13.124,22.272-27.331,25.95-33.247C301.51,297.211,311.688,300.17,316.346,308.241z
		 M290.442,183.803c0.591,1.043,1.619,1.766,2.801,1.97c1.183,0.202,2.393-0.134,3.298-0.92c2.607-2.259,5.938-3.503,9.381-3.503
		c7.918,0,14.36,6.442,14.36,14.36c0,1.68-0.306,3.354-0.909,4.976c-0.471,1.266-0.271,2.682,0.529,3.769
		c0.801,1.085,2.1,1.682,3.443,1.62c0.466-0.026,0.932-0.034,1.406-0.034c14.337,0,26,11.663,26,26s-11.663,26-26,26
		c-0.674,0-1.386-0.032-2.114-0.096c-2.121-0.169-4.042,1.35-4.313,3.479c-1.424,11.167-10.614,19.701-21.711,20.498
		c-1.531-6.7-5.727-12.772-12.121-16.462c-0.186-0.107-0.375-0.204-0.563-0.306l-4.136-89.976
		C284.244,176.583,288.089,179.653,290.442,183.803z M271.632,171.858l-66.351-31.346h64.91L271.632,171.858z M287.26,132.513
		h-2.339v-20.33h2.339V132.513z M231.512,34.081c25.362,0,46.009,20.575,46.124,45.91h-92.249
		C185.504,54.656,206.151,34.081,231.512,34.081z M271.097,87.991v16.191h-79.17V87.991H271.097z M177.034,197.573
		c-0.59-1.045-1.619-1.771-2.801-1.975c-1.181-0.202-2.395,0.132-3.302,0.919c-2.614,2.265-5.945,3.512-9.38,3.512
		c-7.924,0-14.37-6.446-14.37-14.37c0-1.657,0.308-3.336,0.916-4.991c0.463-1.263,0.261-2.674-0.539-3.756
		c-0.8-1.081-2.085-1.686-3.433-1.616c-0.468,0.025-0.937,0.034-1.413,0.034c-14.336,0-26-11.663-26-26s11.664-26,26-26
		c0.726,0,1.47,0.048,2.167,0.099c2.117,0.143,3.991-1.373,4.261-3.48c1.505-11.732,11.565-20.579,23.403-20.579
		c4.02,0,7.912,1.019,11.386,2.943v1.87h-12.163c-2.209,0-4,1.791-4,4v28.33c0,2.209,1.791,4,4,4h13.069l-2.886,62.688
		C179.967,201.683,178.283,199.783,177.034,197.573z M107.742,313.977c0.744-2.001-0.215-4.233-2.178-5.072
		c-0.801-0.342-1.392-0.619-1.948-0.916c-6.157-3.219-10.69-8.641-12.765-15.266c-2.074-6.625-1.443-13.662,1.777-19.816
		c3.218-6.157,8.641-10.69,15.27-12.766c6.627-2.073,13.667-1.443,19.858,1.796c0.399,0.203,0.782,0.414,1.156,0.643
		c1.158,0.704,2.593,0.775,3.815,0.189c1.221-0.588,2.062-1.754,2.234-3.098c0.22-1.724,0.727-3.349,1.507-4.835
		c1.777-3.4,4.772-5.904,8.431-7.05c3.66-1.146,7.549-0.797,10.949,0.98c3.044,1.593,5.417,4.239,6.683,7.452
		c0.439,1.115,1.354,1.974,2.495,2.342c1.141,0.366,2.384,0.203,3.393-0.444c3.327-2.142,7.252-3.156,11.138-2.965l-0.46,10.002
		c-0.188,0.102-0.377,0.199-0.563,0.306c-9.464,5.464-14.118,16.143-12.429,26.355c-10.211-1.687-20.89,2.965-26.354,12.428
		c-5.463,9.464-4.152,21.037,2.416,29.037c-0.784,0.294-1.549,0.626-2.294,0.994c-2.078,0.349-4.028,0.718-5.931,1.127
		c-6.739,1.449-12.856,3.319-18.42,5.469C107.413,334.659,104.138,323.671,107.742,313.977z M74.348,384.525
		c4.247-7.626,19.268-29.815,54.368-39.599c-1.835,3.325-2.951,7.096-3.136,11.103c-5.694,4.063-11.12,8.655-16.147,13.682
		c-8.01,8.01-14.022,16.064-18.529,23.798C82.854,390.352,77.249,386.68,74.348,384.525z M86.026,443.301
		c-0.604-9.272,0.094-38.963,29.064-67.933c3.693-3.694,7.616-7.133,11.708-10.283c2.406,7.4,8.106,13.342,15.367,16.074
		c-6.571,8.002-7.881,19.581-2.416,29.043c2.227,3.856,5.325,6.902,8.898,9.058C121.533,443.185,94.731,443.843,86.026,443.301z
		 M146.677,406.202c-4.801-8.313-1.995-19.002,6.248-23.893c0.085-0.046,0.168-0.095,0.25-0.146
		c4.739-2.714,20.812-9.598,37.097-15.174c1.096,4.626,2.949,8.958,5.426,12.863c-11.558,13.118-22.269,27.334-25.949,33.251
		C161.519,417.234,151.341,414.276,146.677,406.202z M182.533,442.057c-8.327-4.809-11.239-15.495-6.516-23.855
		c0.043-0.069,0.082-0.137,0.12-0.206c2.748-4.724,13.241-18.74,24.561-31.712c3.202,3.393,6.953,6.258,11.114,8.452
		c-3.449,17.139-5.615,34.794-5.845,41.759C200.903,444.191,190.608,446.718,182.533,442.057z M231.509,455.179
		c-9.643,0-17.521-7.845-17.564-17.564c0-5.376,2.08-22.825,5.41-39.791c3.853,1.155,7.93,1.785,12.154,1.785
		c0.57,0,1.135-0.021,1.7-0.043c5.579,16.568,12.537,32.955,15.816,39.088C248.479,447.846,240.827,455.179,231.509,455.179z
		 M280.491,442.057c-8.312,4.802-19.004,1.994-23.895-6.253c-0.041-0.075-0.084-0.149-0.13-0.222
		c-2.712-4.726-9.61-20.831-15.184-37.125c4.625-1.096,8.956-2.949,12.86-5.425c13.137,11.575,27.357,22.289,33.264,25.959
		C291.523,427.226,288.559,437.398,280.491,442.057z M292.572,412.76c-0.093-0.059-0.188-0.113-0.286-0.164
		c-4.72-2.745-18.731-13.234-31.713-24.564c3.391-3.201,6.256-6.95,8.449-11.109c17.138,3.448,34.794,5.615,41.762,5.844
		c7.697,5.065,10.224,15.359,5.563,23.434C311.553,414.505,300.916,417.422,292.572,412.76z M377.555,443.306
		c-8.757,0.536-35.678-0.14-62.843-24.251c3.432-2.143,6.406-5.119,8.563-8.854c5.463-9.466,4.153-21.04-2.415-29.038
		c7.373-2.773,13.142-8.86,15.481-16.427c4.266,3.251,8.346,6.81,12.172,10.635C377.351,404.208,378.127,434.01,377.555,443.306z
		 M372.62,393.378c-4.498-7.693-10.485-15.699-18.449-23.663c-5.192-5.193-10.823-9.926-16.752-14.104
		c-0.243-3.87-1.351-7.511-3.137-10.731c35.082,9.739,50.257,32.033,54.543,39.662C385.979,386.662,380.528,390.242,372.62,393.378z
		"/>
	<path class="st0" d="M231.509,328.461c-15.857,0-28.758,12.901-28.758,28.759s12.901,28.759,28.758,28.759s28.759-12.901,28.759-28.759
		S247.367,328.461,231.509,328.461z M231.509,377.979c-11.446,0-20.758-9.313-20.758-20.759s9.312-20.759,20.758-20.759
		s20.759,9.313,20.759,20.759S242.956,377.979,231.509,377.979z"/>
</g>
<g>
</g>
<g>
</g>
<g>
</g>
<g>
</g>
<g>
</g>
<g>
</g>
<g>
</g>
<g>
</g>
<g>
</g>
<g>
</g>
<g>
</g>
<g>
</g>
<g>
</g>
<g>
</g>
<g>
</g>
</svg>
