<?xml version="1.0" encoding="iso-8859-1"?>
<!-- Generator: Adobe Illustrator 18.0.0, SVG Export Plug-In . SVG Version: 6.00 Build 0)  -->
<!DOCTYPE svg PUBLIC "-//W3C//DTD SVG 1.1//EN" "http://www.w3.org/Graphics/SVG/1.1/DTD/svg11.dtd">
<svg version="1.1" id="Capa_1" xmlns="http://www.w3.org/2000/svg" xmlns:xlink="http://www.w3.org/1999/xlink" x="0px" y="0px"
	 viewBox="0 0 454.166 454.166" style="enable-background:new 0 0 454.166 454.166;" xml:space="preserve">
	 <style type="text/css">
		.st0{fill:#4BFFBA;}
	 </style>
<g>
	<path class="st0" d="M377.405,445.667l-14.104-8.484c-1.269-0.764-2.855-0.764-4.124,0l-7.184,4.321c-10.278,6.184-27.647,6.184-37.925,0
		l-7.184-4.321c-1.269-0.764-2.855-0.764-4.124,0l-7.183,4.321c-3.688,2.218-8.406,3.717-13.644,4.334
		c-2.194,0.259-3.763,2.247-3.504,4.44c0.258,2.194,2.241,3.761,4.441,3.505c6.357-0.749,12.177-2.625,16.831-5.424l5.122-3.081
		l5.122,3.081c6.365,3.829,14.726,5.743,23.086,5.743c8.361,0,16.722-1.914,23.087-5.743l5.122-3.081l12.042,7.244
		c1.895,1.138,4.352,0.527,5.49-1.366C379.91,449.263,379.298,446.805,377.405,445.667z"/>
	<path class="st0" d="M229.449,445.188c-9.883,2.125-20.958,0.681-28.215-3.685l-7.184-4.321c-1.269-0.764-2.855-0.764-4.124,0l-7.184,4.321
		c-4.91,2.954-11.816,4.645-18.962,4.645c-0.034-0.001-0.074-0.007-0.101,0c-2.206,0-3.996,1.785-4,3.992
		c-0.004,2.209,1.783,4.003,3.992,4.008c0.038,0,0.075,0,0.112,0c8.68,0,16.874-2.055,23.083-5.789l5.122-3.081l5.122,3.081
		c6.305,3.793,14.553,5.807,23.019,5.807c3.674,0,7.389-0.379,11.004-1.157c2.16-0.465,3.534-2.592,3.069-4.752
		C233.737,446.097,231.609,444.721,229.449,445.188z"/>
	<path class="st0" d="M118.689,446.148c-7.145,0-14.057-1.692-18.962-4.645l-7.184-4.321c-1.27-0.764-2.855-0.764-4.124,0l-7.184,4.321
		c-1.893,1.139-2.504,3.597-1.366,5.489s3.595,2.503,5.49,1.366l5.122-3.081l5.122,3.081c6.205,3.733,14.404,5.789,23.086,5.789
		c2.209,0,4-1.791,4-4S120.898,446.148,118.689,446.148z"/>
	<path class="st0" d="M304.429,385.843l-2.667,12.667c-0.455,2.162,0.928,4.283,3.09,4.738c0.278,0.059,0.555,0.087,0.828,0.087
		c1.852,0,3.514-1.293,3.91-3.177l2.667-12.667c0.455-2.162-0.928-4.283-3.09-4.738
		C307.007,382.297,304.884,383.681,304.429,385.843z"/>
	<path class="st0" d="M277.834,376.087c-2.163-0.457-4.283,0.929-4.738,3.09l-2.667,12.666c-0.455,2.162,0.928,4.283,3.09,4.738
		c0.278,0.059,0.555,0.087,0.828,0.087c1.852,0,3.514-1.293,3.91-3.177l2.667-12.666
		C281.379,378.663,279.996,376.542,277.834,376.087z"/>
	<path class="st0" d="M422.387,39.725c-1.625-1.497-4.155-1.393-5.652,0.23l-31.333,34c-0.998,1.083-1.32,2.627-0.839,4.019
		c0.482,1.393,1.689,2.407,3.143,2.642l13.994,2.257l-22.654,29.065c-4.148-3.166-9.324-5.051-14.933-5.051
		c-0.117,0-0.233,0.011-0.35,0.013c-0.618-7.658-2.222-15.018-4.395-21.182l2.446,0.766c0.398,0.124,0.801,0.184,1.197,0.184
		c1.702,0,3.28-1.095,3.816-2.806c0.661-2.107-0.513-4.353-2.621-5.013l-48.963-15.338l3.727-26.967
		c0.302-2.188-1.227-4.208-3.415-4.51c-2.184-0.306-4.207,1.227-4.51,3.414l-3.543,25.638l-53.962-16.903
		c-2.109-0.658-4.353,0.513-5.013,2.622c-0.661,2.107,0.513,4.353,2.621,5.013l8.88,2.782c0.734,1.979,1.939,5.868,2.499,11.296
		l-33.053-9.732c-2.119-0.627-4.343,0.587-4.967,2.707c-0.624,2.119,0.588,4.343,2.707,4.967l13.778,4.057
		c0,3.981-0.291,7.699-0.798,11.169c-3.763-2.812-8.382-4.396-13.187-4.396c-10.028,0-18.574,6.835-21.178,16.094
		c-1.425-0.359-2.895-0.544-4.382-0.544c-4.854,0-9.404,1.942-12.728,5.274c-6.188-5.554-14.207-8.664-22.642-8.664
		c-10.466,0-20.122,4.761-26.484,12.744l-13.03-21.211l18.084-4.65c1.206-0.311,2.199-1.164,2.686-2.31
		c0.487-1.146,0.412-2.453-0.202-3.536L109.823,2.029c-1.089-1.922-3.529-2.598-5.452-1.509c-1.922,1.09-2.597,3.53-1.508,5.452
		l34.732,61.291l-18.274,4.699c-1.23,0.316-2.236,1.197-2.712,2.375s-0.364,2.511,0.3,3.593l16.806,27.358L93.361,64.72
		l16.008-4.358c1.293-0.352,2.325-1.329,2.747-2.602c0.421-1.272,0.177-2.672-0.65-3.727L82.823,17.532
		c-1.363-1.737-3.877-2.042-5.616-0.678c-1.738,1.363-2.042,3.878-0.678,5.615l24.919,31.758l-16.823,4.58
		c-1.374,0.374-2.446,1.451-2.813,2.827s0.024,2.844,1.028,3.854l49.745,50.008c-0.272,1.722-0.419,3.479-0.419,5.251
		c0,3.431,0.5,6.771,1.493,9.98c-9.53,2.412-16.603,11.061-16.603,21.33c0,4.592,1.409,8.953,3.95,12.581
		c-11.239,3.642-19.4,14.224-19.4,26.639c0,14.292,10.763,26.118,24.61,27.796c0,0.012,0,0.022,0,0.034
		c0,6.988,4.036,13.197,10.071,16.158c-0.938,2.952-1.411,6.021-1.411,9.172c0,16.784,13.655,30.439,30.44,30.439
		c0.253,0,0.508-0.024,0.763-0.031c-4.792,13.772-12.913,30.525-26.375,50.234c-0.837,1.225-0.927,2.812-0.234,4.123
		c0.692,1.313,2.054,2.133,3.537,2.133c2.362,0,4.94-0.063,7.67-0.131c5.607-0.14,12.313-0.297,20.129,0.025
		c-2.53,4.113-5.296,8.248-8.35,12.393c-1.087,1.476-1.033,3.502,0.133,4.916c0.779,0.946,1.922,1.457,3.089,1.457
		c0.578,0,1.162-0.125,1.711-0.385c1.554-0.736,6.148-2.878,12.866-5.732l-2.521,14.781c-0.266,1.559,0.411,3.128,1.727,4.003
		c0.671,0.446,1.443,0.67,2.216,0.67c0.744,0,1.489-0.207,2.144-0.623c0.299-0.19,30.213-18.836,66.807-13.407
		c0.48,0.186,0.964,0.383,1.445,0.572c-17.073,7.58-34.514,18.492-49.472,29.011c-3.368-6.203-9.867-10.219-17.254-10.219
		c-3.324,0-6.524,0.82-9.369,2.366c-4.642-8.613-13.622-14.106-23.741-14.106c-1.986,0-3.94,0.213-5.845,0.635
		c-2.367-6.993-8.954-11.954-16.715-11.954c-2.632,0-5.208,0.59-7.55,1.702c-5.458-8.558-14.96-13.883-25.31-13.883
		c-16.542,0-30,13.458-30,30c0,1.5,0.113,2.995,0.337,4.477c-9.339,1.681-16.447,9.868-16.447,19.684
		c0,5.622,2.295,10.827,6.289,14.559c-2.038,3.545-3.231,7.47-3.523,11.582l-5.338-3.211c-1.27-0.764-2.855-0.764-4.124,0
		l-11.582,6.967c-1.893,1.139-2.504,3.597-1.366,5.489c1.139,1.893,3.594,2.503,5.49,1.366l9.52-5.727l5.122,3.081
		c12.729,7.656,33.442,7.656,46.173,0l5.122-3.081l5.122,3.081c12.729,7.656,33.442,7.656,46.172,0l5.123-3.081l5.122,3.081
		c12.729,7.656,33.442,7.656,46.173,0l5.122-3.081l5.122,3.081c6.365,3.828,14.726,5.742,23.086,5.742
		c8.361,0,16.722-1.914,23.087-5.742l5.122-3.081l5.122,3.081c12.729,7.656,33.442,7.656,46.172,0l5.123-3.081l5.122,3.081
		c12.729,7.656,33.442,7.656,46.173,0l5.122-3.081l12.042,7.243c1.894,1.139,4.352,0.527,5.489-1.366
		c1.139-1.893,0.527-4.351-1.366-5.489l-14.104-8.483c-1.269-0.764-2.855-0.764-4.124,0l-7.183,4.321
		c-10.278,6.184-27.646,6.184-37.926,0l-7.184-4.321c-1.269-0.764-2.856-0.764-4.124,0l-7.184,4.321
		c-1.759,1.058-3.736,1.921-5.839,2.616c3.992-5.651,9.155-13.402,12.182-19.837c5.971-12.695,5.395-27.29-1.542-39.039
		c-2.795-4.735-6.457-8.655-10.723-11.673c3.059-4.861,6.473-10.373,10.037-16.182c5.867,7.278,8.339,17.661,7.331,30.972
		c-0.115,1.521,0.645,2.977,1.96,3.75c0.627,0.369,1.328,0.553,2.028,0.553c0.768,0,1.535-0.221,2.201-0.66
		c28.67-18.895,59.753-48.495,49.028-110.758l7.035,1.943c0.357,0.099,0.715,0.146,1.068,0.146c1.754,0,3.363-1.162,3.853-2.936
		c0.588-2.129-0.66-4.332-2.79-4.921l-32.341-8.933c10.188-12.801,14.231-30.435,15.799-43.748
		c0.673-5.715,0.994-11.599,0.993-17.388c13.099-0.57,23.581-11.402,23.581-24.638c0-9.601-5.51-18.178-13.998-22.235
		c0.001-0.105,0.002-0.211,0.002-0.316c0-5.076-1.543-9.798-4.182-13.724l27.567-35.368c0.869-1.115,1.085-2.606,0.568-3.922
		c-0.517-1.315-1.69-2.261-3.086-2.486l-13.317-2.148l26.288-28.525C424.115,43.753,424.012,41.222,422.387,39.725z M349.394,82.594
		c3.517,6.97,5.993,17.164,6.535,27.085c0.499,9.133-0.665,17.421-3.314,24.085c-5.729-9.992-15.661-18.039-29.169-23.538
		c-19.01-7.74-42.766-9.02-60.732-3.867c10.221-21.943,8.787-39.358,6.528-48.872L349.394,82.594z M350.061,267.553
		c-4.734,2.07-13.305,6.694-22.347,15.872c-16.147,16.389-24.522,37.843-28.82,57.001c-4.307-26.557-3.209-66.425,3.314-117.101
		c3.961-30.775,9.074-58.797,12.325-75.368L350.061,267.553z M342.486,213.961c8.135,5.996,11.307,13.622,9.636,23.078l-3.029-0.837
		L342.486,213.961z M218.243,193.866c27.51-27.159,32.508-62.999,33.402-76.457l57.483,16.892
		c-1.81,8.55-6.281,30.484-10.622,58.012c-1.643-0.184-3.369-0.36-5.225-0.531C266.57,189.405,237.454,191.212,218.243,193.866z
		 M288.543,199.43l-2.924,19.251l-62.849-17.358C240.328,199.12,265.091,197.722,288.543,199.43z M223.181,140.206l15.106,4.396
		c-3.149,10.109-8.085,21.394-15.819,32.029C224.506,166.119,225.943,152.316,223.181,140.206z M243.431,119.21l-11.625-2.328
		c1.061-1.224,2.214-2.673,3.398-4.304l8.539,2.509C243.684,116.189,243.587,117.577,243.431,119.21z M266.765,113.514
		c10.049-2.589,21.99-3.006,33.662-1.259l-1.478,10.716L266.765,113.514z M296.511,200.144c0.257,0.027,0.524,0.054,0.777,0.082
		c-1.011,6.72-2,13.708-2.931,20.868l-0.986-0.272L296.511,200.144z M306.709,125.252l1.581-11.464
		c4.181,0.998,8.266,2.271,12.138,3.847c8.231,3.351,18.377,9.185,24.471,18.84L306.709,125.252z M248.96,70.241l13.804,4.064
		c-0.364,8.844-2.743,20.942-10.51,34.945l-12.585-3.698C244.364,97.079,248.565,85.372,248.96,70.241z M165.316,266.878
		c-12.374,0-22.44-10.066-22.44-22.439c0-3.438,0.765-6.747,2.274-9.835c0.547-1.119,0.542-2.429-0.016-3.544
		c-0.557-1.114-1.601-1.905-2.825-2.141c-4.69-0.899-8.094-5.025-8.094-9.811c0-0.908,0.134-1.839,0.397-2.766
		c0.354-1.242,0.085-2.578-0.719-3.588c-0.805-1.01-2.053-1.569-3.338-1.501c-0.319,0.017-0.631,0.024-0.95,0.024
		c-11.028,0-20-8.972-20-20c0-10.974,8.926-19.94,19.898-19.99c1.778-0.008,3.337-1.188,3.827-2.898
		c0.49-1.709-0.208-3.537-1.712-4.485c-4.109-2.591-6.563-7.02-6.563-11.846c0-7.694,6.238-13.959,13.923-14
		c1.496,0.091,2.933-0.617,3.718-1.886c0.729-1.179,0.796-2.65,0.178-3.89c-1.425-2.856-2.283-5.888-2.582-9.037l11.97,12.033
		c0.777,0.781,1.805,1.179,2.837,1.179c0.87,0,1.744-0.282,2.473-0.856c1.595-1.256,1.997-3.508,0.934-5.237l-14.368-23.389
		c4.727-7.54,12.94-12.147,21.936-12.147c7.723,0,14.992,3.414,19.944,9.367c0.852,1.024,2.157,1.552,3.483,1.422
		c1.325-0.136,2.496-0.923,3.122-2.098c1.743-3.271,5.123-5.302,8.82-5.302c1.914,0,3.781,0.553,5.398,1.599
		c1.223,0.792,2.779,0.855,4.063,0.167c1.283-0.688,2.091-2.021,2.109-3.477c0.093-7.631,6.369-13.839,13.99-13.839
		c4.413,0,8.571,2.102,11.205,5.621c-1.716,5.964-4.037,10.932-6.413,14.949l-3.66-1.076c-2.12-0.623-4.343,0.59-4.966,2.71
		c-0.623,2.12,0.591,4.343,2.71,4.966l1.126,0.331c-3.07,3.808-5.507,5.786-5.789,6.009c-1.234,0.961-1.794,2.554-1.435,4.075
		c0.36,1.522,1.574,2.695,3.107,3.002l19.507,3.906c-0.48,2.946-1.121,6.221-1.975,9.731l-32.296-9.399
		c-2.12-0.616-4.341,0.603-4.958,2.723c-0.617,2.121,0.602,4.342,2.723,4.959l8.216,2.391c6.729,18.731-1.492,46.811-3.203,52.233
		c-2.28,2.152-4.727,4.23-7.333,6.222l-38.161-10.54c-2.128-0.59-4.333,0.661-4.92,2.791c-0.588,2.129,0.661,4.332,2.791,4.92
		l23.494,6.489c1.415,3.794,4.705,13.644,6.611,27.559l-32.636-9.093c-2.127-0.587-4.333,0.651-4.927,2.78
		c-0.593,2.128,0.651,4.334,2.779,4.927l12.557,3.499c1.123,4.321,3.205,16.798-2.498,37.269
		C167.544,266.786,166.444,266.878,165.316,266.878z M150.559,323.206c30.946-47.79,31.355-78.349,29.291-91.432l14.467,4.031
		c0.182,2.261,0.322,4.599,0.407,7.012c0.716,20.446-2.489,49.583-19.408,80.635C165.458,322.852,157.248,323.042,150.559,323.206z
		 M176.893,336.62c22.559-36.036,26.651-70.533,25.826-94.083c-0.633-18.083-4.098-32.211-6.612-40.279l97.241,26.857
		c-3.228,26.587-5.489,54.92-5.007,80.041c-3.788-0.132-7.77-0.079-11.906,0.177C240.355,311.519,198.066,327.62,176.893,336.62z
		 M290.725,339.997c-4.422-0.029-9.082,0.51-13.907,1.524l3.366-24.36c2.909-0.105,5.722-0.106,8.411,0.003
		C288.959,325.25,289.65,332.917,290.725,339.997z M186.997,351.927l1.987-11.652c4.139-1.661,8.727-3.433,13.651-5.232
		c7.55,1.49,15.348,3.429,23.358,5.809C208.897,342.601,195.009,348.068,186.997,351.927z M216.994,330.082
		c17.256-5.614,36.815-10.661,55.039-12.373l-3.59,25.982c-1.876,0.571-3.768,1.198-5.674,1.88
		C246.916,338.959,231.58,333.765,216.994,330.082z M161.728,410.974l-0.76-0.457c-1.269-0.764-2.856-0.764-4.124,0l-7.184,4.321
		c-10.279,6.183-27.647,6.183-37.926,0l-7.184-4.321c-1.269-0.764-2.855-0.764-4.124,0l-7.183,4.321
		c-8.425,5.069-21.608,5.975-31.751,2.735c-0.059-0.611-0.096-1.229-0.096-1.856c0-4.389,1.438-8.532,4.161-11.982
		c0.71-0.9,1-2.062,0.795-3.189c-0.204-1.129-0.882-2.115-1.863-2.709c-3.621-2.194-5.783-6.025-5.783-10.249
		c0-6.617,5.383-12,12-12c0.317,0,0.656,0.02,1.037,0.059c1.352,0.146,2.68-0.414,3.531-1.474c0.851-1.059,1.106-2.477,0.678-3.766
		c-0.754-2.271-1.136-4.618-1.136-6.979c0-12.131,9.869-22,22-22c8.743,0,16.663,5.184,20.176,13.205
		c0.513,1.171,1.554,2.026,2.802,2.302c1.25,0.272,2.553-0.062,3.511-0.908c1.765-1.56,4.027-2.418,6.372-2.418
		c5.201,0,9.437,4.076,9.644,9.279c0.052,1.313,0.745,2.516,1.854,3.219c1.109,0.703,2.492,0.817,3.702,0.306
		c2.326-0.985,4.802-1.484,7.36-1.484c8.306,0,15.786,5.551,18.191,13.499c0.407,1.347,1.492,2.38,2.856,2.722
		c1.362,0.343,2.807-0.057,3.802-1.052c2.21-2.211,5.144-3.429,8.261-3.429c4.639,0,8.811,2.818,10.657,6.945
		C177.021,397.457,163.291,409.582,161.728,410.974z M168.965,415.279c12.323-10.623,80.022-67.296,121.361-67.296
		c0.414,0,1.642,0.036,1.845,0.044c0.361,1.712,0.761,3.362,1.18,4.98c-15.851-0.92-38.205,7.629-66.805,25.607
		c-24.489,15.393-46.417,33.318-52.885,38.727C171.993,416.768,170.419,416.081,168.965,415.279z M273.801,410.516
		c-1.269-0.764-2.855-0.764-4.124,0l-7.183,4.321c-10.278,6.184-27.646,6.184-37.926,0l-7.184-4.321
		c-1.269-0.764-2.855-0.764-4.124,0l-7.183,4.321c-5.976,3.595-14.345,5.085-22.328,4.5c27.984-22.895,84.098-62.767,111.834-58.119
		c-1.483,21.903-11.966,47.015-14.814,53.49L273.801,410.516z M316.4,397.381c-4.53,8.365-11.801,18.204-14.393,21.708
		c-0.089,0.121-0.169,0.229-0.248,0.335c-4.658,0.183-9.375-0.339-13.629-1.566c3.009-6.794,13.112-30.956,15.243-53.602
		c0.367,0.257,0.726,0.525,1.072,0.813C315.091,373.943,319.111,384.814,316.4,397.381z M316.823,362.645
		c1.691,2.865,2.904,5.946,3.649,9.132c-2.594-4.642-6.227-8.953-10.905-12.854c-0.926-0.772-1.905-1.468-2.934-2.091
		c0.655-1,1.335-2.044,2.061-3.172C311.92,356.01,314.689,359.031,316.823,362.645z M306.821,341.68
		c1.421-6.247,3.309-12.734,5.78-19.171c1.591,0.793,3.081,1.67,4.455,2.633C313.429,331.064,309.943,336.705,306.821,341.68z
		 M321.229,318.31c-1.714-1.17-3.55-2.236-5.509-3.186c4.27-9.201,9.894-18.063,17.317-25.7c4.012-4.128,7.925-7.241,11.355-9.561
		C337.825,290.856,329.365,304.95,321.229,318.31z M376.985,252.206c5.278,26.899,2.968,49.188-7.092,68.045
		c-8.225,15.417-20.778,26.399-31.336,34c-0.313-12.907-4.058-23.186-11.156-30.682c13.655-22.399,28.329-47.073,33.679-56.091
		c1.128-1.902,0.496-4.352-1.406-5.478c-0.956-0.566-2.05-0.688-3.045-0.43l-4.85-16.326L376.985,252.206z M360.36,228.58
		c-1.088-9.166-6.579-18.705-21.233-25.925l-19.378-65.233l31.417,9.232c0.001,0,0.002,0,0.003,0.001l17.085,5.021
		C372.822,170.002,373.017,206.158,360.36,228.58z M394.775,154.104c0,8.895-7.01,16.163-15.793,16.622
		c-0.315-5.835-0.976-11.42-1.963-16.475l0.862,0.253c0.376,0.11,0.756,0.163,1.13,0.163c1.729,0,3.324-1.13,3.836-2.873
		c0.623-2.12-0.591-4.343-2.71-4.966l-21.767-6.396c3.858-7.573,5.524-16.55,5.659-25.543c0.028,0,0.055-0.003,0.083-0.003
		c3.758,0,7.217,1.265,10.008,3.371l-3.599,4.618c-1.358,1.742-1.046,4.256,0.696,5.614c0.73,0.569,1.597,0.845,2.456,0.845
		c1.191,0,2.369-0.529,3.158-1.541l2.44-3.13c0.96,2.103,1.509,4.431,1.509,6.89c0,0.692-0.061,1.442-0.191,2.36
		c-0.272,1.919,0.871,3.758,2.713,4.362C390.164,140.526,394.775,146.887,394.775,154.104z"/>
</g>
</svg>
